
<svg width="54" height="26" viewBox="0 0 54 26" fill="none" xmlns="http://www.w3.org/2000/svg">
<g clip-path="url(#clip0_444_15233)">
<path d="M3.05469 11.3906L5.02344 15.6641L6.98438 11.3906H8.96094L5.00781 19.5234L1.08594 11.3906H3.05469ZM17.8047 15.6094H12.3516C12.3984 16.2344 12.6016 16.7318 12.9609 17.1016C13.3203 17.4661 13.7812 17.6484 14.3438 17.6484C14.7812 17.6484 15.1432 17.5443 15.4297 17.3359C15.7109 17.1276 16.0312 16.7422 16.3906 16.1797L17.875 17.0078C17.6458 17.3984 17.4036 17.7344 17.1484 18.0156C16.8932 18.2917 16.6198 18.5208 16.3281 18.7031C16.0365 18.8802 15.7214 19.0104 15.3828 19.0938C15.0443 19.1771 14.6771 19.2188 14.2812 19.2188C13.1458 19.2188 12.2344 18.8542 11.5469 18.125C10.8594 17.3906 10.5156 16.4167 10.5156 15.2031C10.5156 14 10.849 13.026 11.5156 12.2812C12.1875 11.5469 13.0781 11.1797 14.1875 11.1797C15.3073 11.1797 16.1927 11.5365 16.8438 12.25C17.4896 12.9583 17.8125 13.9401 17.8125 15.1953L17.8047 15.6094ZM16 14.1719C15.7552 13.2344 15.1641 12.7656 14.2266 12.7656C14.013 12.7656 13.8125 12.7995 13.625 12.8672C13.4375 12.9297 13.2656 13.0234 13.1094 13.1484C12.9583 13.2682 12.8281 13.4141 12.7188 13.5859C12.6094 13.7578 12.526 13.9531 12.4688 14.1719H16ZM22.4922 5.80469V19H20.7344V5.80469H22.4922ZM27.4766 5.80469V19H25.7188V5.80469H27.4766ZM32.4609 11.3906V15.7578C32.4609 17.0182 32.9583 17.6484 33.9531 17.6484C34.9479 17.6484 35.4453 17.0182 35.4453 15.7578V11.3906H37.2031V15.7969C37.2031 16.4062 37.1276 16.9323 36.9766 17.375C36.8307 17.7708 36.5781 18.1276 36.2188 18.4453C35.625 18.9609 34.8698 19.2188 33.9531 19.2188C33.0417 19.2188 32.2891 18.9609 31.6953 18.4453C31.3307 18.1276 31.0729 17.7708 30.9219 17.375C30.776 17.0208 30.7031 16.4948 30.7031 15.7969V11.3906H32.4609ZM40.4219 11.3906H42.1797V12.0938C42.5182 11.7396 42.8073 11.5 43.0469 11.375C43.3021 11.2448 43.6224 11.1797 44.0078 11.1797C44.8672 11.1797 45.5469 11.5547 46.0469 12.3047C46.599 11.5547 47.3464 11.1797 48.2891 11.1797C50.0026 11.1797 50.8594 12.2188 50.8594 14.2969V19H49.0938V14.7734C49.0938 14.0443 49.0052 13.5286 48.8281 13.2266C48.6458 12.9193 48.3464 12.7656 47.9297 12.7656C47.4453 12.7656 47.0911 12.9479 46.8672 13.3125C46.6484 13.6771 46.5391 14.263 46.5391 15.0703V19H44.7734V14.7969C44.7734 13.4427 44.3828 12.7656 43.6016 12.7656C43.1068 12.7656 42.7448 12.9505 42.5156 13.3203C42.2917 13.6901 42.1797 14.2734 42.1797 15.0703V19H40.4219V11.3906Z" fill="#FFFFFF"/>
</g>
<defs>
<clipPath id="clip0_444_15233">
<rect width="54" height="26" fill="white"/>
</clipPath>
</defs>
</svg>
