<svg width="1512" height="1007" viewBox="0 0 1512 1007" fill="none" xmlns="http://www.w3.org/2000/svg">
<g clip-path="url(#clip0_911_4567)">
<rect width="1512" height="1007" fill="#01061D"/>
<g opacity="0.6" clip-path="url(#clip1_911_4567)">
<rect width="1512" height="1588" fill="url(#paint0_linear_911_4567)" fill-opacity="0.2"/>
<g opacity="0.25">
<line x1="1512" y1="47.5" x2="-4.37115e-08" y2="47.4999" stroke="#9796E7" stroke-dasharray="2 2"/>
<line x1="1512" y1="95.5" x2="-4.37115e-08" y2="95.4999" stroke="#9796E7" stroke-dasharray="2 2"/>
<line x1="1512" y1="143.5" x2="-4.37115e-08" y2="143.5" stroke="#9796E7" stroke-dasharray="2 2"/>
<line x1="1512" y1="191.5" x2="-4.37115e-08" y2="191.5" stroke="#9796E7" stroke-dasharray="2 2"/>
<line x1="1512" y1="239.5" x2="-4.37115e-08" y2="239.5" stroke="#9796E7" stroke-dasharray="2 2"/>
<line x1="1512" y1="287.5" x2="-6.75093e-08" y2="287.5" stroke="#9796E7" stroke-dasharray="2 2"/>
<line x1="1512" y1="335.5" x2="-6.75093e-08" y2="335.5" stroke="#9796E7" stroke-dasharray="2 2"/>
<line x1="1512" y1="383.5" x2="-6.75093e-08" y2="383.5" stroke="#9796E7" stroke-dasharray="2 2"/>
<line x1="1512" y1="431.5" x2="-6.75093e-08" y2="431.5" stroke="#9796E7" stroke-dasharray="2 2"/>
<line x1="1512" y1="479.5" x2="-6.75093e-08" y2="479.5" stroke="#9796E7" stroke-dasharray="2 2"/>
<line x1="1512" y1="527.5" x2="-6.75093e-08" y2="527.5" stroke="#9796E7" stroke-dasharray="2 2"/>
<line x1="1512" y1="575.5" x2="-6.75093e-08" y2="575.5" stroke="#9796E7" stroke-dasharray="2 2"/>
<line x1="1512" y1="623.5" x2="-6.75093e-08" y2="623.5" stroke="#9796E7" stroke-dasharray="2 2"/>
<line x1="1512" y1="671.5" x2="-6.75093e-08" y2="671.5" stroke="#9796E7" stroke-dasharray="2 2"/>
<line x1="1512" y1="719.5" x2="-6.75093e-08" y2="719.5" stroke="#9796E7" stroke-dasharray="2 2"/>
<line x1="1512" y1="767.5" x2="-6.75093e-08" y2="767.5" stroke="#9796E7" stroke-dasharray="2 2"/>
<line x1="1512" y1="815.5" x2="-6.75093e-08" y2="815.5" stroke="#9796E7" stroke-dasharray="2 2"/>
<line x1="1512" y1="863.5" x2="-6.75093e-08" y2="863.5" stroke="#9796E7" stroke-dasharray="2 2"/>
<line x1="1512" y1="911.5" x2="-6.75093e-08" y2="911.5" stroke="#9796E7" stroke-dasharray="2 2"/>
<line x1="1512" y1="959.5" x2="-6.75093e-08" y2="959.5" stroke="#9796E7" stroke-dasharray="2 2"/>
</g>
<line x1="24.4985" y1="4.27514e-08" x2="24.4985" y2="1915" stroke="#A4A4D0" stroke-opacity="0.25" stroke-dasharray="2 2"/>
<line x1="72.4985" y1="4.27514e-08" x2="72.4985" y2="1915" stroke="#A4A4D0" stroke-opacity="0.25" stroke-dasharray="2 2"/>
<line x1="120.499" y1="4.27514e-08" x2="120.498" y2="1915" stroke="#A4A4D0" stroke-opacity="0.25" stroke-dasharray="2 2"/>
<line x1="168.499" y1="4.27514e-08" x2="168.498" y2="1915" stroke="#A4A4D0" stroke-opacity="0.25" stroke-dasharray="2 2"/>
<line x1="216.499" y1="4.27514e-08" x2="216.498" y2="1915" stroke="#A4A4D0" stroke-opacity="0.25" stroke-dasharray="2 2"/>
<line x1="264.499" y1="4.27514e-08" x2="264.499" y2="1915" stroke="#A4A4D0" stroke-opacity="0.25" stroke-dasharray="2 2"/>
<line x1="312.499" y1="4.27514e-08" x2="312.499" y2="1915" stroke="#A4A4D0" stroke-opacity="0.25" stroke-dasharray="2 2"/>
<line x1="360.499" y1="4.27514e-08" x2="360.499" y2="1915" stroke="#A4A4D0" stroke-opacity="0.25" stroke-dasharray="2 2"/>
<line x1="408.499" y1="4.27514e-08" x2="408.499" y2="1915" stroke="#A4A4D0" stroke-opacity="0.25" stroke-dasharray="2 2"/>
<line x1="456.499" y1="4.27514e-08" x2="456.499" y2="1915" stroke="#A4A4D0" stroke-opacity="0.25" stroke-dasharray="2 2"/>
<line x1="504.499" y1="4.27514e-08" x2="504.499" y2="1915" stroke="#A4A4D0" stroke-opacity="0.25" stroke-dasharray="2 2"/>
<line x1="552.499" y1="4.27514e-08" x2="552.498" y2="1915" stroke="#A4A4D0" stroke-opacity="0.25" stroke-dasharray="2 2"/>
<line x1="600.499" y1="4.27514e-08" x2="600.499" y2="1915" stroke="#A4A4D0" stroke-opacity="0.25" stroke-dasharray="2 2"/>
<line x1="648.499" y1="4.27514e-08" x2="648.499" y2="1915" stroke="#A4A4D0" stroke-opacity="0.25" stroke-dasharray="2 2"/>
<line x1="696.499" y1="4.27514e-08" x2="696.499" y2="1915" stroke="#A4A4D0" stroke-opacity="0.25" stroke-dasharray="2 2"/>
<line x1="744.499" y1="4.27514e-08" x2="744.499" y2="1915" stroke="#A4A4D0" stroke-opacity="0.25" stroke-dasharray="2 2"/>
<line x1="792.499" y1="4.27514e-08" x2="792.499" y2="1915" stroke="#A4A4D0" stroke-opacity="0.25" stroke-dasharray="2 2"/>
<line x1="840.499" y1="4.27514e-08" x2="840.499" y2="1915" stroke="#A4A4D0" stroke-opacity="0.25" stroke-dasharray="2 2"/>
<line x1="888.499" y1="4.27514e-08" x2="888.499" y2="1915" stroke="#A4A4D0" stroke-opacity="0.25" stroke-dasharray="2 2"/>
<line x1="936.499" y1="4.27514e-08" x2="936.499" y2="1915" stroke="#A4A4D0" stroke-opacity="0.25" stroke-dasharray="2 2"/>
<line x1="984.499" y1="4.27514e-08" x2="984.499" y2="1915" stroke="#A4A4D0" stroke-opacity="0.25" stroke-dasharray="2 2"/>
<line x1="1032.5" y1="2.18557e-08" x2="1032.5" y2="1915" stroke="#A4A4D0" stroke-opacity="0.25" stroke-dasharray="2 2"/>
<line x1="1080.5" y1="2.18557e-08" x2="1080.5" y2="1915" stroke="#A4A4D0" stroke-opacity="0.25" stroke-dasharray="2 2"/>
<line x1="1128.5" y1="2.18557e-08" x2="1128.5" y2="1915" stroke="#A4A4D0" stroke-opacity="0.25" stroke-dasharray="2 2"/>
<line x1="1176.5" y1="2.18557e-08" x2="1176.5" y2="1915" stroke="#A4A4D0" stroke-opacity="0.25" stroke-dasharray="2 2"/>
<line x1="1224.5" y1="2.18557e-08" x2="1224.5" y2="1915" stroke="#A4A4D0" stroke-opacity="0.25" stroke-dasharray="2 2"/>
<line x1="1272.5" y1="2.18557e-08" x2="1272.5" y2="1915" stroke="#A4A4D0" stroke-opacity="0.25" stroke-dasharray="2 2"/>
<line x1="1320.5" y1="2.18557e-08" x2="1320.5" y2="1915" stroke="#A4A4D0" stroke-opacity="0.25" stroke-dasharray="2 2"/>
<line x1="1368.5" y1="2.18557e-08" x2="1368.5" y2="1915" stroke="#A4A4D0" stroke-opacity="0.25" stroke-dasharray="2 2"/>
<line x1="1416.5" y1="3.30403e-08" x2="1416.5" y2="1915" stroke="#A4A4D0" stroke-opacity="0.25" stroke-dasharray="2 2"/>
<line x1="1464.5" y1="3.30403e-08" x2="1464.5" y2="1915" stroke="#A4A4D0" stroke-opacity="0.25" stroke-dasharray="2 2"/>
<g clip-path="url(#clip2_911_4567)">
<rect width="1512" height="1007" fill="url(#paint1_radial_911_4567)"/>
<rect width="1512" height="1007" transform="translate(1512 1007) rotate(180)" fill="url(#paint2_linear_911_4567)"/>
<rect width="1512" height="1007" transform="translate(1512 1007) rotate(180)" fill="url(#paint3_linear_911_4567)" fill-opacity="0.2"/>
</g>
</g>
</g>
<defs>
<linearGradient id="paint0_linear_911_4567" x1="1162.5" y1="564.371" x2="420.986" y2="805.75" gradientUnits="userSpaceOnUse">
<stop stop-color="#3836F7"/>
<stop offset="1" stop-color="#323191"/>
</linearGradient>
<radialGradient id="paint1_radial_911_4567" cx="0" cy="0" r="1" gradientUnits="userSpaceOnUse" gradientTransform="translate(756 320.122) rotate(-171.478) scale(1118.35 492.904)">
<stop stop-opacity="0.2"/>
<stop offset="1" stop-opacity="0.74"/>
</radialGradient>
<linearGradient id="paint2_linear_911_4567" x1="1299" y1="93.0002" x2="157" y2="503" gradientUnits="userSpaceOnUse">
<stop stop-opacity="0.22"/>
<stop offset="0.395833"/>
<stop offset="1" stop-opacity="0"/>
</linearGradient>
<linearGradient id="paint3_linear_911_4567" x1="1143.5" y1="926.5" x2="1384" y2="626" gradientUnits="userSpaceOnUse">
<stop/>
<stop offset="1" stop-opacity="0"/>
</linearGradient>
<clipPath id="clip0_911_4567">
<rect width="1512" height="1007" fill="white"/>
</clipPath>
<clipPath id="clip1_911_4567">
<rect width="1512" height="1007" fill="white"/>
</clipPath>
<clipPath id="clip2_911_4567">
<rect width="1512" height="1007" fill="white"/>
</clipPath>
</defs>
</svg>
