<svg width="86" height="27" viewBox="0 0 86 27" fill="none" xmlns="http://www.w3.org/2000/svg">
<path d="M3.90371 11.5422L7.64433 19.6617L11.3701 11.5422H15.1256L7.61465 26.9945L0.163086 11.5422H3.90371ZM30.0287 19.5578H19.6678C19.7568 20.7453 20.1428 21.6904 20.8256 22.393C21.5084 23.0857 22.3842 23.432 23.4529 23.432C24.2842 23.432 24.9719 23.2341 25.5162 22.8383C26.0506 22.4424 26.6592 21.7102 27.342 20.6414L30.1623 22.2148C29.7269 22.957 29.2667 23.5953 28.7818 24.1297C28.2969 24.6542 27.7774 25.0896 27.2232 25.4359C26.6691 25.7724 26.0704 26.0198 25.4271 26.1781C24.7839 26.3365 24.0863 26.4156 23.3342 26.4156C21.1769 26.4156 19.4451 25.7229 18.1389 24.3375C16.8326 22.9422 16.1795 21.0917 16.1795 18.7859C16.1795 16.5 16.8128 14.6495 18.0795 13.2344C19.356 11.8391 21.0482 11.1414 23.156 11.1414C25.2837 11.1414 26.9659 11.8193 28.2029 13.175C29.43 14.5208 30.0435 16.3862 30.0435 18.7711L30.0287 19.5578ZM26.5998 16.8266C26.1347 15.0453 25.0115 14.1547 23.2303 14.1547C22.8245 14.1547 22.4435 14.219 22.0873 14.3477C21.731 14.4664 21.4045 14.6445 21.1076 14.882C20.8206 15.1096 20.5732 15.3867 20.3654 15.7133C20.1576 16.0398 19.9993 16.4109 19.8904 16.8266H26.5998ZM37.035 0.928955V26H33.6951V0.928955H37.035ZM44.6053 0.928955V26H41.2654V0.928955H44.6053ZM52.1756 11.5422V19.8398C52.1756 22.2346 53.1206 23.432 55.0107 23.432C56.9008 23.432 57.8459 22.2346 57.8459 19.8398V11.5422H61.1857V19.9141C61.1857 21.0719 61.0422 22.0714 60.7553 22.9125C60.4782 23.6646 59.9982 24.3424 59.3154 24.9461C58.1873 25.9258 56.7524 26.4156 55.0107 26.4156C53.279 26.4156 51.849 25.9258 50.7209 24.9461C50.0282 24.3424 49.5383 23.6646 49.2514 22.9125C48.9743 22.2396 48.8357 21.2401 48.8357 19.9141V11.5422H52.1756ZM65.4014 11.5422H68.7412V12.8781C69.3844 12.2052 69.9337 11.75 70.3889 11.5125C70.8738 11.2651 71.4823 11.1414 72.2146 11.1414C73.8475 11.1414 75.1389 11.8539 76.0889 13.2789C77.1378 11.8539 78.5579 11.1414 80.349 11.1414C83.6047 11.1414 85.2326 13.1156 85.2326 17.0641V26H81.8779V17.9695C81.8779 16.5841 81.7097 15.6044 81.3732 15.0305C81.0269 14.4466 80.4579 14.1547 79.6662 14.1547C78.7459 14.1547 78.073 14.501 77.6475 15.1938C77.2318 15.8865 77.024 16.9997 77.024 18.5336V26H73.6693V18.0141C73.6693 15.4411 72.9271 14.1547 71.4428 14.1547C70.5027 14.1547 69.8149 14.506 69.3795 15.2086C68.954 15.9112 68.7412 17.0195 68.7412 18.5336V26H65.4014V11.5422Z" fill="white"/>
</svg>
