<svg xmlns="http://www.w3.org/2000/svg" width="100%" viewBox="0 0 86 27" fill="none" class="logo_icon"><path d="M3.90391 11.5422L7.64453 19.6617L11.3703 11.5422H15.1258L7.61484 26.9945L0.163281 11.5422H3.90391ZM30.0289 19.5578H19.668C19.757 20.7453 20.143 21.6904 20.8258 22.393C21.5086 23.0857 22.3844 23.432 23.4531 23.432C24.2844 23.432 24.9721 23.2341 25.5164 22.8383C26.0508 22.4424 26.6594 21.7102 27.3422 20.6414L30.1625 22.2148C29.7271 22.957 29.2669 23.5953 28.782 24.1297C28.2971 24.6542 27.7776 25.0896 27.2234 25.4359C26.6693 25.7724 26.0706 26.0198 25.4273 26.1781C24.7841 26.3365 24.0865 26.4156 23.3344 26.4156C21.1771 26.4156 19.4453 25.7229 18.1391 24.3375C16.8328 22.9422 16.1797 21.0917 16.1797 18.7859C16.1797 16.5 16.813 14.6495 18.0797 13.2344C19.3562 11.8391 21.0484 11.1414 23.1562 11.1414C25.2839 11.1414 26.9661 11.8193 28.2031 13.175C29.4302 14.5208 30.0437 16.3862 30.0437 18.7711L30.0289 19.5578ZM26.6 16.8266C26.1349 15.0453 25.0117 14.1547 23.2305 14.1547C22.8247 14.1547 22.4437 14.219 22.0875 14.3477C21.7312 14.4664 21.4047 14.6445 21.1078 14.882C20.8208 15.1096 20.5734 15.3867 20.3656 15.7133C20.1578 16.0398 19.9995 16.4109 19.8906 16.8266H26.6ZM37.0352 0.928907V26H33.6953V0.928907H37.0352ZM44.6055 0.928907V26H41.2656V0.928907H44.6055ZM52.1758 11.5422V19.8398C52.1758 22.2346 53.1208 23.432 55.0109 23.432C56.901 23.432 57.8461 22.2346 57.8461 19.8398V11.5422H61.1859V19.9141C61.1859 21.0719 61.0424 22.0714 60.7555 22.9125C60.4784 23.6646 59.9984 24.3424 59.3156 24.9461C58.1875 25.9258 56.7526 26.4156 55.0109 26.4156C53.2792 26.4156 51.8492 25.9258 50.7211 24.9461C50.0284 24.3424 49.5385 23.6646 49.2516 22.9125C48.9745 22.2396 48.8359 21.2401 48.8359 19.9141V11.5422H52.1758ZM65.4016 11.5422H68.7414V12.8781C69.3846 12.2052 69.9339 11.75 70.3891 11.5125C70.874 11.2651 71.4825 11.1414 72.2148 11.1414C73.8477 11.1414 75.1391 11.8539 76.0891 13.2789C77.138 11.8539 78.5581 11.1414 80.3492 11.1414C83.6049 11.1414 85.2328 13.1156 85.2328 17.0641V26H81.8781V17.9695C81.8781 16.5841 81.7099 15.6044 81.3734 15.0305C81.0271 14.4466 80.4581 14.1547 79.6664 14.1547C78.7461 14.1547 78.0732 14.501 77.6477 15.1938C77.232 15.8865 77.0242 16.9997 77.0242 18.5336V26H73.6695V18.0141C73.6695 15.4411 72.9273 14.1547 71.443 14.1547C70.5029 14.1547 69.8151 14.506 69.3797 15.2086C68.9542 15.9112 68.7414 17.0195 68.7414 18.5336V26H65.4016V11.5422Z" fill="currentColor"></path></svg>